<svg width="17" height="17" viewBox="0 0 17 17" fill="none" xmlns="http://www.w3.org/2000/svg">
<path d="M8.58342 0.5C10.683 0.5 12.6967 1.33407 14.1813 2.81874C15.666 4.3034 16.5001 6.31704 16.5001 8.41667C16.5001 10.5163 15.666 12.5299 14.1813 14.0146C12.6967 15.4993 10.683 16.3333 8.58342 16.3333C6.48378 16.3333 4.47015 15.4993 2.98549 14.0146C1.50082 12.5299 0.666748 10.5163 0.666748 8.41667C0.666748 6.31704 1.50082 4.3034 2.98549 2.81874C4.47015 1.33407 6.48378 0.5 8.58342 0.5ZM8.58342 1.33333C6.7048 1.33333 4.90312 2.07961 3.57474 3.40799C2.24636 4.73638 1.50008 6.53805 1.50008 8.41667C1.50008 10.2953 2.24636 12.097 3.57474 13.4253C4.90312 14.7537 6.7048 15.5 8.58342 15.5C9.51361 15.5 10.4347 15.3168 11.2941 14.9608C12.1535 14.6048 12.9343 14.0831 13.5921 13.4253C14.2498 12.7676 14.7716 11.9867 15.1276 11.1273C15.4835 10.268 15.6667 9.34686 15.6667 8.41667C15.6667 6.53805 14.9205 4.73638 13.5921 3.40799C12.2637 2.07961 10.462 1.33333 8.58342 1.33333ZM8.16675 3.83333H9.00008V8.35L12.9167 10.6083L12.5001 11.3333L8.16675 8.83333V3.83333Z" fill="black"/>
</svg>
