<svg width="20" height="20" viewBox="0 0 20 20" fill="none" xmlns="http://www.w3.org/2000/svg">
<path fill-rule="evenodd" clip-rule="evenodd" d="M10.4692 2.66667H9.53085L8.99335 4.815L8.45419 4.98167C8.14001 5.07848 7.83561 5.20459 7.54502 5.35834L7.04585 5.62251L5.14585 4.48251L4.48252 5.14667L5.62252 7.04667L5.35835 7.545C5.20432 7.83557 5.07793 8.13996 4.98085 8.45417L4.81502 8.99334L2.66669 9.53084V10.4692L4.81502 11.0067L4.98169 11.5458C5.0778 11.8614 5.20335 12.1644 5.35835 12.455L5.62252 12.9542L4.48252 14.8542L5.14669 15.5175L7.04669 14.3775L7.54502 14.6417C7.83558 14.7961 8.13863 14.9219 8.45419 15.0192L8.99335 15.185L9.53085 17.3333H10.4692L11.0067 15.185L11.5459 15.0183C11.86 14.9215 12.1644 14.7954 12.455 14.6417L12.9542 14.3775L14.8542 15.5175L15.5175 14.8533L14.3775 12.9533L14.6417 12.455C14.7961 12.1644 14.922 11.8614 15.0192 11.5458L15.185 11.0067L17.3334 10.4692V9.53084L15.185 8.99334L15.0184 8.45417C14.9215 8.13999 14.7954 7.8356 14.6417 7.545L14.3775 7.04584L15.5175 5.14584L14.8534 4.48251L12.9534 5.62251L12.455 5.35834C12.1645 5.20431 11.8601 5.07792 11.5459 4.98084L11.0067 4.815L10.4692 2.66667ZM12.9234 4.475L14.4509 3.55834C14.6101 3.46281 14.7968 3.42322 14.9811 3.44587C15.1654 3.46851 15.3369 3.55209 15.4684 3.68334L16.3167 4.53167C16.4479 4.66309 16.5315 4.83458 16.5542 5.01893C16.5768 5.20327 16.5372 5.3899 16.4417 5.54917L15.525 7.07667C15.7084 7.42112 15.8584 7.78223 15.975 8.16L17.7025 8.5925C17.8827 8.63765 18.0427 8.74171 18.157 8.88817C18.2713 9.03462 18.3333 9.21506 18.3334 9.40084V10.5992C18.3333 10.7849 18.2713 10.9654 18.157 11.1118C18.0427 11.2583 17.8827 11.3624 17.7025 11.4075L15.975 11.84C15.8584 12.2178 15.7084 12.5789 15.525 12.9233L16.4417 14.4508C16.5372 14.6101 16.5768 14.7967 16.5542 14.9811C16.5315 15.1654 16.4479 15.3369 16.3167 15.4683L15.4684 16.3167C15.3369 16.4479 15.1654 16.5315 14.9811 16.5541C14.7968 16.5768 14.6101 16.5372 14.4509 16.4417L12.9234 15.525C12.5789 15.7083 12.2178 15.8583 11.84 15.975L11.4075 17.7025C11.3624 17.8827 11.2583 18.0427 11.1119 18.157C10.9654 18.2713 10.785 18.3333 10.5992 18.3333H9.40085C9.21508 18.3333 9.03463 18.2713 8.88818 18.157C8.74173 18.0427 8.63766 17.8827 8.59252 17.7025L8.16002 15.975C7.7856 15.8593 7.42289 15.7086 7.07669 15.525L5.54919 16.4417C5.38991 16.5372 5.20329 16.5768 5.01894 16.5541C4.8346 16.5315 4.6631 16.4479 4.53169 16.3167L3.68335 15.4683C3.55211 15.3369 3.46853 15.1654 3.44588 14.9811C3.42324 14.7967 3.46282 14.6101 3.55835 14.4508L4.47502 12.9233C4.29139 12.5771 4.14072 12.2144 4.02502 11.84L2.29752 11.4075C2.11745 11.3624 1.9576 11.2585 1.84332 11.1122C1.72904 10.9659 1.66688 10.7856 1.66669 10.6V9.40167C1.66669 9.2159 1.72877 9.03545 1.84307 8.889C1.95736 8.74254 2.11731 8.63848 2.29752 8.59334L4.02502 8.16084C4.14169 7.78306 4.29169 7.42195 4.47502 7.07751L3.55835 5.55C3.46282 5.39073 3.42324 5.2041 3.44588 5.01976C3.46853 4.83542 3.55211 4.66392 3.68335 4.53251L4.53169 3.68334C4.6631 3.55209 4.8346 3.46851 5.01894 3.44587C5.20329 3.42322 5.38991 3.46281 5.54919 3.55834L7.07669 4.475C7.42113 4.29167 7.78224 4.14167 8.16002 4.025L8.59252 2.29751C8.63763 2.11744 8.74157 1.95759 8.88785 1.84331C9.03414 1.72903 9.21439 1.66686 9.40002 1.66667H10.5984C10.7841 1.66668 10.9646 1.72876 11.111 1.84305C11.2575 1.95735 11.3615 2.1173 11.4067 2.29751L11.8392 4.025C12.217 4.14167 12.5781 4.29167 12.9225 4.475H12.9234ZM10 12.3333C10.6189 12.3333 11.2124 12.0875 11.6499 11.6499C12.0875 11.2123 12.3334 10.6188 12.3334 10C12.3334 9.38117 12.0875 8.78767 11.6499 8.35009C11.2124 7.9125 10.6189 7.66667 10 7.66667C9.38118 7.66667 8.78769 7.9125 8.3501 8.35009C7.91252 8.78767 7.66669 9.38117 7.66669 10C7.66669 10.6188 7.91252 11.2123 8.3501 11.6499C8.78769 12.0875 9.38118 12.3333 10 12.3333ZM10 13.3333C9.11597 13.3333 8.26812 12.9821 7.643 12.357C7.01788 11.7319 6.66669 10.8841 6.66669 10C6.66669 9.11595 7.01788 8.2681 7.643 7.64298C8.26812 7.01786 9.11597 6.66667 10 6.66667C10.8841 6.66667 11.7319 7.01786 12.357 7.64298C12.9822 8.2681 13.3334 9.11595 13.3334 10C13.3334 10.8841 12.9822 11.7319 12.357 12.357C11.7319 12.9821 10.8841 13.3333 10 13.3333Z" fill="black"/>
</svg>
