<svg width="20" height="20" viewBox="0 0 20 20" fill="none" xmlns="http://www.w3.org/2000/svg">
<path d="M13.3333 9.16667C14.7166 9.16667 15.825 8.05 15.825 6.66667C15.825 5.28334 14.7166 4.16667 13.3333 4.16667C11.95 4.16667 10.8333 5.28334 10.8333 6.66667C10.8333 8.05 11.95 9.16667 13.3333 9.16667ZM6.66665 9.16667C8.04998 9.16667 9.15831 8.05 9.15831 6.66667C9.15831 5.28334 8.04998 4.16667 6.66665 4.16667C5.28331 4.16667 4.16665 5.28334 4.16665 6.66667C4.16665 8.05 5.28331 9.16667 6.66665 9.16667ZM6.66665 10.8333C4.72498 10.8333 0.833313 11.8083 0.833313 13.75V15.8333H12.5V13.75C12.5 11.8083 8.60831 10.8333 6.66665 10.8333ZM13.3333 10.8333C13.0916 10.8333 12.8166 10.85 12.525 10.875C13.4916 11.575 14.1666 12.5167 14.1666 13.75V15.8333H19.1666V13.75C19.1666 11.8083 15.275 10.8333 13.3333 10.8333Z" fill="black"/>
</svg>
