<svg width="18" height="18" viewBox="0 0 18 18" fill="none" xmlns="http://www.w3.org/2000/svg">
<path d="M9 16.4505C7.52643 16.4505 6.08596 16.0135 4.86073 15.1949C3.6355 14.3762 2.68055 13.2126 2.11664 11.8512C1.55273 10.4898 1.40518 8.99174 1.69266 7.54648C1.98014 6.10123 2.68973 4.77367 3.7317 3.7317C4.77367 2.68973 6.10123 1.98014 7.54648 1.69266C8.99174 1.40518 10.4898 1.55273 11.8512 2.11664C13.2126 2.68055 14.3762 3.6355 15.1949 4.86073C16.0135 6.08596 16.4505 7.52643 16.4505 9C16.4483 10.9753 15.6627 12.8691 14.2659 14.2659C12.8691 15.6627 10.9753 16.4483 9 16.4505ZM9 2.2995C7.67477 2.2995 6.3793 2.69248 5.2774 3.42874C4.17551 4.165 3.31669 5.21148 2.80955 6.43583C2.3024 7.66019 2.16971 9.00744 2.42825 10.3072C2.68679 11.607 3.32495 12.8009 4.26203 13.738C5.19912 14.6751 6.39303 15.3132 7.6928 15.5718C8.99257 15.8303 10.3398 15.6976 11.5642 15.1905C12.7885 14.6833 13.835 13.8245 14.5713 12.7226C15.3075 11.6207 15.7005 10.3252 15.7005 9C15.6985 7.22353 14.9919 5.52038 13.7358 4.26423C12.4796 3.00807 10.7765 2.30149 9 2.2995Z" fill="#FF5500"/>
<path d="M10.875 10.125C10.8738 10.5225 10.7154 10.9033 10.4343 11.1843C10.1533 11.4654 9.77246 11.6238 9.375 11.625V12.3825C9.375 12.4819 9.33549 12.5773 9.26517 12.6477C9.19484 12.718 9.09946 12.7575 9 12.7575C8.90054 12.7575 8.80516 12.718 8.73483 12.6477C8.66451 12.5773 8.625 12.4819 8.625 12.3825V11.625H7.6875C7.58804 11.625 7.49266 11.5855 7.42233 11.5152C7.35201 11.4448 7.3125 11.3494 7.3125 11.25C7.3125 11.1505 7.35201 11.0552 7.42233 10.9848C7.49266 10.9145 7.58804 10.875 7.6875 10.875H9.375C9.57391 10.875 9.76468 10.796 9.90533 10.6553C10.046 10.5147 10.125 10.3239 10.125 10.125C10.125 9.92608 10.046 9.73532 9.90533 9.59466C9.76468 9.45401 9.57391 9.37499 9.375 9.37499H8.625C8.22718 9.37499 7.84564 9.21696 7.56434 8.93565C7.28304 8.65435 7.125 8.27282 7.125 7.87499C7.125 7.47717 7.28304 7.09564 7.56434 6.81433C7.84564 6.53303 8.22718 6.37499 8.625 6.37499V5.61749C8.625 5.51804 8.66451 5.42265 8.73483 5.35233C8.80516 5.282 8.90054 5.24249 9 5.24249C9.09946 5.24249 9.19484 5.282 9.26517 5.35233C9.33549 5.42265 9.375 5.51804 9.375 5.61749V6.37499H10.3125C10.412 6.37499 10.5073 6.4145 10.5777 6.48483C10.648 6.55515 10.6875 6.65054 10.6875 6.74999C10.6875 6.84945 10.648 6.94483 10.5777 7.01516C10.5073 7.08548 10.412 7.12499 10.3125 7.12499H8.625C8.42609 7.12499 8.23532 7.20401 8.09467 7.34466C7.95402 7.48532 7.875 7.67608 7.875 7.87499C7.875 8.07391 7.95402 8.26467 8.09467 8.40532C8.23532 8.54597 8.42609 8.62499 8.625 8.62499H9.375C9.77246 8.62618 10.1533 8.7846 10.4343 9.06564C10.7154 9.34669 10.8738 9.72753 10.875 10.125Z" fill="#FF5500"/>
</svg>
