<svg width="18" height="19" viewBox="0 0 18 19" fill="none" xmlns="http://www.w3.org/2000/svg">
<path d="M9.54 12.665C9.5915 12.6097 9.6536 12.5654 9.7226 12.5347C9.7916 12.5039 9.86608 12.4874 9.94161 12.4861C10.0171 12.4847 10.0922 12.4986 10.1622 12.5269C10.2322 12.5552 10.2959 12.5973 10.3493 12.6507C10.4027 12.7041 10.4448 12.7678 10.4731 12.8378C10.5014 12.9078 10.5153 12.9829 10.5139 13.0584C10.5126 13.1339 10.4961 13.2084 10.4653 13.2774C10.4346 13.3464 10.3903 13.4085 10.335 13.46L7.71 16.085C7.6585 16.1403 7.5964 16.1846 7.5274 16.2153C7.45841 16.2461 7.38392 16.2626 7.30839 16.2639C7.23287 16.2653 7.15784 16.2514 7.0878 16.2231C7.01776 16.1948 6.95414 16.1527 6.90072 16.0993C6.84731 16.0459 6.8052 15.9822 6.77691 15.9122C6.74862 15.8422 6.73472 15.7671 6.73606 15.6916C6.73739 15.6161 6.75392 15.5416 6.78467 15.4726C6.81541 15.4036 6.85974 15.3415 6.915 15.29L9.54 12.665ZM3.915 13.79C3.9665 13.7347 4.0286 13.6904 4.0976 13.6597C4.1666 13.6289 4.24108 13.6124 4.31661 13.6111C4.39214 13.6097 4.46716 13.6236 4.5372 13.6519C4.60724 13.6802 4.67087 13.7223 4.72428 13.7757C4.77769 13.8291 4.8198 13.8928 4.84809 13.9628C4.87638 14.0328 4.89028 14.1079 4.88894 14.1834C4.88761 14.2589 4.87108 14.3334 4.84034 14.4024C4.80959 14.4714 4.76527 14.5335 4.71 14.585L3.585 15.71C3.5335 15.7653 3.4714 15.8096 3.4024 15.8403C3.3334 15.8711 3.25892 15.8876 3.18339 15.8889C3.10787 15.8903 3.03284 15.8764 2.9628 15.8481C2.89276 15.8198 2.82914 15.7777 2.77572 15.7243C2.72231 15.6709 2.6802 15.6072 2.65191 15.5372C2.62362 15.4672 2.60972 15.3921 2.61106 15.3166C2.61239 15.2411 2.62892 15.1666 2.65967 15.0976C2.69041 15.0286 2.73474 14.9665 2.79 14.915L3.915 13.79ZM14.289 9.02225C14.3655 8.65925 14.8845 8.65925 14.961 9.02225L15.078 9.605C15.2108 10.2695 15.7305 10.79 16.395 10.9235L16.9778 11.039C17.3303 11.1132 17.34 11.603 17.01 11.7028L16.395 11.8258C16.07 11.8909 15.7715 12.0509 15.5371 12.2853C15.3028 12.5198 15.143 12.8184 15.078 13.1435L14.961 13.7255L14.9453 13.7712C14.8425 14.066 14.4495 14.069 14.3213 13.82L14.3003 13.76L14.1743 13.1412C14.1087 12.8167 13.9487 12.5188 13.7144 12.2849C13.4801 12.051 13.1819 11.8915 12.8573 11.8265L12.2723 11.7095C11.9205 11.6353 11.9093 11.147 12.2393 11.0465L12.8543 10.9235C13.1797 10.8585 13.4786 10.6986 13.7132 10.464C13.9479 10.2293 14.1078 9.93042 14.1728 9.605L14.289 9.02225ZM8.04 9.665C8.0915 9.60974 8.1536 9.56541 8.2226 9.53466C8.2916 9.50392 8.36608 9.48739 8.44161 9.48606C8.51714 9.48472 8.59216 9.49862 8.6622 9.52691C8.73224 9.5552 8.79587 9.59731 8.84928 9.65072C8.90269 9.70414 8.9448 9.76776 8.97309 9.8378C9.00138 9.90784 9.01528 9.98286 9.01394 10.0584C9.01261 10.1339 8.99608 10.2084 8.96534 10.2774C8.93459 10.3464 8.89027 10.4085 8.835 10.46L6.21 13.085C6.1585 13.1403 6.0964 13.1846 6.0274 13.2153C5.9584 13.2461 5.88392 13.2626 5.80839 13.2639C5.73287 13.2653 5.65784 13.2514 5.5878 13.2231C5.51776 13.1948 5.45414 13.1527 5.40072 13.0993C5.34731 13.0459 5.3052 12.9822 5.27691 12.9122C5.24862 12.8422 5.23472 12.7671 5.23606 12.6916C5.23739 12.6161 5.25392 12.5416 5.28466 12.4726C5.31541 12.4036 5.35974 12.3415 5.415 12.29L8.04 9.665ZM5.415 7.79C5.4665 7.73474 5.5286 7.69041 5.5976 7.65966C5.6666 7.62892 5.74108 7.61239 5.81661 7.61106C5.89214 7.60972 5.96716 7.62362 6.0372 7.65191C6.10724 7.6802 6.17087 7.72231 6.22428 7.77572C6.27769 7.82914 6.3198 7.89276 6.34809 7.9628C6.37638 8.03284 6.39028 8.10786 6.38894 8.18339C6.38761 8.25892 6.37108 8.3334 6.34034 8.4024C6.30959 8.4714 6.26527 8.5335 6.21 8.585L3.21 11.585C3.1585 11.6403 3.0964 11.6846 3.0274 11.7153C2.9584 11.7461 2.88392 11.7626 2.80839 11.7639C2.73287 11.7653 2.65784 11.7514 2.5878 11.7231C2.51776 11.6948 2.45414 11.6527 2.40072 11.5993C2.34731 11.5459 2.3052 11.4822 2.27691 11.4122C2.24862 11.3422 2.23472 11.2671 2.23606 11.1916C2.23739 11.1161 2.25392 11.0416 2.28467 10.9726C2.31541 10.9036 2.35974 10.8415 2.415 10.79L5.415 7.79ZM10.347 1.6775C10.4678 1.1075 11.2823 1.1075 11.403 1.6775L11.5853 2.5925C11.6873 3.10398 11.9386 3.57376 12.3074 3.94257C12.6762 4.31137 13.146 4.56267 13.6575 4.66475L14.5718 4.847C15.1253 4.96325 15.1418 5.73275 14.6228 5.8895L13.6575 6.083C13.1461 6.18503 12.6764 6.43621 12.3076 6.80487C11.9388 7.17354 11.6875 7.64316 11.5853 8.1545L11.403 9.06875L11.3783 9.14C11.217 9.60275 10.5983 9.60875 10.3973 9.21725L10.3635 9.12275L10.167 8.14925C10.0639 7.63931 9.81239 7.1712 9.44411 6.80372C9.07582 6.43623 8.60717 6.18576 8.097 6.08375L7.17825 5.90075C6.6255 5.7845 6.60825 5.01575 7.1265 4.85825L8.0925 4.66475C8.60384 4.56254 9.07347 4.31118 9.44213 3.94239C9.81079 3.57359 10.062 3.10388 10.164 2.5925L10.347 1.6775Z" fill="#FF5500"/>
</svg>
