<svg width="15" height="20" viewBox="0 0 15 20" fill="none" xmlns="http://www.w3.org/2000/svg">
<path d="M7.05022 5.80895L8.22499 7.10201C8.32529 7.21213 8.50846 7.14126 8.50846 6.99298V3.89662C8.50845 3.85343 8.52553 3.812 8.55597 3.78136C8.5864 3.75072 8.62772 3.73337 8.67091 3.73308H10.8296C11.7771 3.73308 12.6547 4.22806 13.1405 5.03595L13.5668 5.74462C13.5951 5.79161 13.635 5.8305 13.6828 5.85753C13.7305 5.88455 13.7845 5.8988 13.8393 5.8989H13.8557C13.9402 5.89875 14.0211 5.86509 14.0808 5.8053C14.1405 5.74551 14.174 5.66448 14.174 5.57999V2.35934C14.174 2.27486 14.1405 2.19382 14.0808 2.13403C14.0211 2.07424 13.9402 2.04058 13.8557 2.04044H8.8339C8.74759 2.04044 8.66481 2.00615 8.60378 1.94512C8.54274 1.88408 8.50846 1.80131 8.50846 1.71499V0.24422C8.50846 0.109572 8.39943 0 8.26424 0H7.12545C6.9908 0 6.88123 0.109027 6.88123 0.24422V1.71499C6.88123 1.89489 6.73568 2.04098 6.55578 2.04098H0.319449C0.235059 2.04098 0.154109 2.07443 0.0943344 2.134C0.0345596 2.19357 0.000833647 2.27441 0.000545134 2.3588V3.11871C0.000545134 3.20048 0.0321629 3.27898 0.0883117 3.3384L7.0862 9.59327C7.14214 9.65231 7.17332 9.73054 7.17332 9.81187C7.17332 9.8932 7.14214 9.97143 7.0862 10.0305L0.0877666 16.2859C0.0314743 16.3452 6.26567e-05 16.4238 0 16.5056V17.2655C0 17.4416 0.142825 17.5838 0.318904 17.5838H6.55524C6.73513 17.5838 6.88068 17.7299 6.88068 17.9098V19.3806C6.88068 19.5153 6.98971 19.6248 7.12491 19.6248H8.26369C8.39834 19.6248 8.50791 19.5158 8.50791 19.3806V17.9098C8.50791 17.7299 8.65346 17.5844 8.83281 17.5844H13.8546C13.8966 17.5845 13.9382 17.5762 13.977 17.5602C14.0159 17.5441 14.0511 17.5205 14.0808 17.4908C14.1105 17.4611 14.134 17.4258 14.15 17.3869C14.166 17.348 14.1742 17.3064 14.174 17.2644V14.0443C14.174 13.9597 14.1404 13.8786 14.0806 13.8188C14.0208 13.759 13.9397 13.7254 13.8551 13.7254H13.8399C13.7848 13.7253 13.7307 13.7395 13.6827 13.7665C13.6348 13.7935 13.5946 13.8325 13.5662 13.8797L13.1405 14.5883C12.9004 14.9863 12.5615 15.3153 12.1567 15.5436C11.7519 15.7719 11.2949 15.8917 10.8302 15.8912H8.67091C8.6495 15.8911 8.62832 15.8868 8.60857 15.8786C8.58882 15.8703 8.5709 15.8583 8.55581 15.8431C8.54072 15.8279 8.52878 15.8099 8.52065 15.7901C8.51253 15.7703 8.50838 15.7491 8.50846 15.7277V12.6313C8.50859 12.5984 8.4987 12.5661 8.4801 12.5389C8.4615 12.5118 8.43508 12.4909 8.40432 12.479C8.37357 12.4672 8.33995 12.465 8.30792 12.4727C8.27589 12.4804 8.24697 12.4977 8.22499 12.5223L7.05022 13.8153C6.94119 13.9353 6.88123 14.0912 6.88123 14.2536V15.7282C6.88123 15.7713 6.86411 15.8126 6.83365 15.8431C6.80318 15.8735 6.76186 15.8907 6.71878 15.8907H2.71531C2.70621 15.8909 2.69719 15.8888 2.68916 15.8845C2.68113 15.8802 2.67436 15.8739 2.66952 15.8661C2.66416 15.857 2.66176 15.8465 2.66264 15.8359C2.66352 15.8254 2.66763 15.8154 2.67443 15.8073L8.9124 9.94543L8.91349 9.94379C8.94381 9.90641 8.96035 9.85973 8.96035 9.8116C8.96035 9.76346 8.94381 9.71679 8.91349 9.6794L8.9124 9.67831L2.67443 3.81703C2.66763 3.80892 2.66352 3.79891 2.66264 3.78837C2.66176 3.77783 2.66416 3.76727 2.66952 3.75816C2.67436 3.75043 2.68113 3.74411 2.68916 3.73981C2.69719 3.7355 2.70621 3.73337 2.71531 3.73362H6.71878C6.80818 3.73362 6.88123 3.80613 6.88123 3.89607V5.37066C6.88123 5.53257 6.94119 5.68902 7.05022 5.80895Z" fill="#FF5500"/>
</svg>
