<svg width="26" height="26" viewBox="0 0 26 26" fill="none" xmlns="http://www.w3.org/2000/svg">
<path d="M25.9415 1.11474C26.0006 0.967086 26.0151 0.805333 25.9831 0.649534C25.9512 0.493735 25.8742 0.350742 25.7617 0.238281C25.6492 0.125821 25.5063 0.0488387 25.3505 0.0168791C25.1947 -0.0150805 25.0329 -0.000612289 24.8852 0.05849L1.24637 9.51437C1.03819 9.5977 0.857039 9.73685 0.722848 9.9165C0.588658 10.0962 0.506633 10.3093 0.485801 10.5326C0.464969 10.7559 0.506139 10.9806 0.604778 11.1819C0.703417 11.3833 0.855702 11.5536 1.04487 11.674L9.16175 16.8382L11.6496 20.748C11.7671 20.9254 11.9495 21.0496 12.1576 21.094C12.3658 21.1383 12.583 21.0993 12.7626 20.9852C12.9422 20.8711 13.0699 20.6911 13.1183 20.4839C13.1666 20.2767 13.1317 20.0588 13.0211 19.877L10.7851 16.3637L22.9629 4.18599L19.8835 11.8852C19.8412 11.9847 19.8192 12.0917 19.8187 12.1998C19.8183 12.3079 19.8394 12.415 19.8809 12.5149C19.9224 12.6147 19.9834 12.7053 20.0603 12.7813C20.1372 12.8572 20.2285 12.9171 20.3289 12.9573C20.4293 12.9976 20.5366 13.0174 20.6447 13.0156C20.7528 13.0138 20.8595 12.9904 20.9585 12.9468C21.0574 12.9033 21.1467 12.8404 21.2211 12.7619C21.2954 12.6835 21.3534 12.5909 21.3915 12.4897L25.9415 1.11474ZM21.814 3.03711L9.63625 15.2149L2.58537 10.7282L21.814 3.03711Z" fill="black"/>
<path d="M26 20.3125C26 21.8209 25.4008 23.2676 24.3342 24.3342C23.2676 25.4008 21.8209 26 20.3125 26C18.8041 26 17.3574 25.4008 16.2908 24.3342C15.2242 23.2676 14.625 21.8209 14.625 20.3125C14.625 18.8041 15.2242 17.3574 16.2908 16.2908C17.3574 15.2242 18.8041 14.625 20.3125 14.625C21.8209 14.625 23.2676 15.2242 24.3342 16.2908C25.4008 17.3574 26 18.8041 26 20.3125ZM17.0625 20.3125C17.0625 20.528 17.1481 20.7347 17.3005 20.887C17.4528 21.0394 17.6595 21.125 17.875 21.125H22.75C22.9655 21.125 23.1722 21.0394 23.3245 20.887C23.4769 20.7347 23.5625 20.528 23.5625 20.3125C23.5625 20.097 23.4769 19.8903 23.3245 19.738C23.1722 19.5856 22.9655 19.5 22.75 19.5H17.875C17.6595 19.5 17.4528 19.5856 17.3005 19.738C17.1481 19.8903 17.0625 20.097 17.0625 20.3125Z" fill="black"/>
</svg>
