<svg width="32" height="31" viewBox="0 0 32 31" fill="none" xmlns="http://www.w3.org/2000/svg">
<path d="M16.1345 0C16.1008 0 16.0538 5.53176e-08 16.0134 0.00788458C15.7042 0.0637333 15.3345 0.342977 15.0924 0.980967C14.837 1.6183 14.7832 2.52699 15.005 3.50007C15.2336 4.46133 15.7042 5.28986 16.2286 5.79579C16.7395 6.30171 17.2034 6.43969 17.5126 6.38713C17.8353 6.34113 18.1916 6.05203 18.4336 5.42127C18.6891 4.78788 18.7563 3.8667 18.5277 2.90151C18.2924 1.92908 17.8286 1.10843 17.3042 0.605795C16.8605 0.159005 16.4504 0 16.1345 0ZM23.8924 8.50938C23.1529 8.52909 22.2185 8.71963 21.3109 9.09415C20.2622 9.54094 19.4555 10.1388 19.0118 10.7039C18.5681 11.2493 18.5277 11.6632 18.6689 11.9063C18.8168 12.1494 19.2269 12.3794 20.0134 12.4122C20.8 12.4582 21.8622 12.2677 22.9042 11.834C23.9462 11.3938 24.7664 10.7893 25.2101 10.2374C25.6538 9.69206 25.6874 9.26498 25.5462 9.02187C25.405 8.7722 24.9882 8.55537 24.2017 8.52909C24.0941 8.50938 24 8.50938 23.8924 8.50938ZM14.7294 14.6133C14.2857 14.6199 13.8824 14.6725 13.5193 14.7644C12.7261 14.9616 12.2689 15.3164 12.121 15.7434C11.9529 16.1705 12.121 16.683 12.6454 17.2349C13.1966 17.7737 14.1042 18.2928 15.2336 18.5819C16.3563 18.871 17.4387 18.8644 18.2454 18.6541C19.0588 18.4505 19.516 18.0891 19.6639 17.6686C19.8185 17.2415 19.6639 16.7356 19.1193 16.1771C18.5882 15.6383 17.6807 15.1192 16.5513 14.8367C15.9126 14.6725 15.2874 14.6067 14.7294 14.6133ZM25.5328 18.4307L21.3782 20.3559C21.6605 20.369 22.3664 20.3887 22.3664 20.3887L22.8101 20.9604L26.4874 19.0878L25.5328 18.4307ZM21.8689 18.4373L18.0101 20.2245C18.3798 20.2442 19.2538 20.2573 19.6034 20.277L22.9513 18.7264L21.8689 18.4373ZM28.0941 19.1469L23.3546 21.6043L24.3294 22.8329L29.3378 19.9025L28.0941 19.1469ZM9.35126 19.7448C9.1477 19.7444 8.94473 19.7665 8.74622 19.8105C3.9395 20.8947 1.10252 20.9866 0.262185 20.9866H0V28.0499C0 28.0499 0.779832 27.9382 2.07731 27.9316C4.58487 27.9316 9.00168 28.3521 13.3042 30.8095C13.5328 30.9474 14.0235 31 14.6353 31C16.2689 31 18.7496 30.6189 19.321 30.4087C25.0756 28.2995 32 22.511 32 22.511L29.8151 20.645C29.8151 20.645 24.4504 23.9893 23.7714 24.3113C17.6471 27.2483 12.6857 25.4151 12.6857 25.4151C12.6857 25.4151 20.7462 25.6122 23.3345 23.6214L21.8151 21.3874C21.8151 21.3874 16.2487 21.2363 14.2655 20.9801C13.2303 20.8487 10.9916 19.7448 9.35126 19.7448Z" fill="#FF5500"/>
</svg>
