<svg width="33" height="46" viewBox="0 0 33 46" fill="none" xmlns="http://www.w3.org/2000/svg">
<path d="M16.4169 13.8564L19.0691 16.7756C19.2956 17.0243 19.7091 16.8643 19.7091 16.5295V9.539C19.7091 9.44151 19.7477 9.34797 19.8164 9.2788C19.8851 9.20962 19.9784 9.17044 20.0759 9.16979H24.9495C27.0885 9.16979 29.07 10.2873 30.1665 12.1112L31.129 13.7112C31.1929 13.8172 31.2831 13.905 31.3909 13.966C31.4987 14.0271 31.6205 14.0592 31.7443 14.0594H31.7813C31.972 14.0591 32.1548 13.9831 32.2896 13.8481C32.4243 13.7131 32.5 13.5302 32.5 13.3395V6.06837C32.5 5.87763 32.4243 5.69469 32.2896 5.55971C32.1548 5.42472 31.972 5.34872 31.7813 5.3484H20.4438C20.249 5.3484 20.0621 5.27099 19.9243 5.1332C19.7865 4.99541 19.7091 4.80852 19.7091 4.61366V1.29317C19.7091 0.989181 19.463 0.741806 19.1577 0.741806H16.5868C16.2828 0.741806 16.0354 0.98795 16.0354 1.29317V4.61366C16.0354 5.01979 15.7068 5.34963 15.3007 5.34963H1.2212C1.03068 5.34963 0.847924 5.42514 0.712974 5.55963C0.578024 5.69412 0.501882 5.87662 0.501231 6.06714V7.78276C0.501231 7.96737 0.572613 8.1446 0.699377 8.27875L16.4982 22.4C16.6244 22.5333 16.6948 22.71 16.6948 22.8936C16.6948 23.0772 16.6244 23.2538 16.4982 23.3871L0.698146 37.5096C0.571058 37.6435 0.500141 37.821 0.5 38.0056V39.7212C0.5 40.1187 0.822449 40.44 1.21997 40.44H15.2994C15.7056 40.44 16.0342 40.7698 16.0342 41.1759V44.4964C16.0342 44.8004 16.2803 45.0478 16.5855 45.0478H19.1565C19.4605 45.0478 19.7079 44.8016 19.7079 44.4964V41.1759C19.7079 40.7698 20.0365 40.4412 20.4414 40.4412H31.7788C31.8736 40.4414 31.9676 40.4228 32.0553 40.3865C32.1429 40.3502 32.2225 40.297 32.2896 40.2299C32.3566 40.1628 32.4097 40.083 32.4458 39.9953C32.4819 39.9076 32.5003 39.8136 32.5 39.7188V32.4489C32.5 32.2579 32.4241 32.0748 32.2891 31.9398C32.1541 31.8048 31.971 31.7289 31.78 31.7289H31.7456C31.6213 31.7287 31.4991 31.7607 31.3908 31.8217C31.2825 31.8827 31.1919 31.9708 31.1277 32.0772L30.1665 33.6771C29.6245 34.5755 28.8594 35.3185 27.9455 35.8339C27.0316 36.3493 26 36.6196 24.9507 36.6186H20.0759C20.0275 36.6184 19.9797 36.6087 19.9351 36.5901C19.8905 36.5714 19.8501 36.5442 19.816 36.5099C19.782 36.4756 19.755 36.435 19.7366 36.3903C19.7183 36.3456 19.7089 36.2977 19.7091 36.2494V29.2589C19.7094 29.1845 19.6871 29.1118 19.6451 29.0504C19.6031 28.9889 19.5434 28.9418 19.474 28.9151C19.4046 28.8884 19.3287 28.8834 19.2564 28.9008C19.1841 28.9183 19.1188 28.9573 19.0691 29.0127L16.4169 31.932C16.1708 32.2027 16.0354 32.5547 16.0354 32.9215V36.2506C16.0354 36.3479 15.9968 36.4411 15.928 36.5099C15.8592 36.5787 15.7659 36.6173 15.6686 36.6173H6.63022C6.60966 36.6179 6.58931 36.6131 6.57118 36.6034C6.55305 36.5937 6.53776 36.5794 6.52684 36.562C6.51475 36.5414 6.50932 36.5175 6.5113 36.4937C6.51328 36.4699 6.52258 36.4473 6.53792 36.429L20.6211 23.1951L20.6235 23.1914C20.692 23.107 20.7293 23.0016 20.7293 22.893C20.7293 22.7843 20.692 22.6789 20.6235 22.5945L20.6211 22.592L6.53792 9.35932C6.52258 9.34102 6.51328 9.31841 6.5113 9.29462C6.50932 9.27082 6.51475 9.24699 6.52684 9.2264C6.53776 9.20897 6.55305 9.19469 6.57118 9.18498C6.58931 9.17526 6.60966 9.17045 6.63022 9.17102H15.6686C15.8705 9.17102 16.0354 9.3347 16.0354 9.53777V12.8669C16.0354 13.2324 16.1708 13.5856 16.4169 13.8564Z" fill="#FF5500"/>
</svg>
