<svg width="12" height="12" viewBox="0 0 12 12" fill="none" xmlns="http://www.w3.org/2000/svg">
<path d="M1.29797 9.30799V8.48449C1.29797 8.25249 1.35797 8.05299 1.47797 7.88599C1.59831 7.71932 1.75997 7.58599 1.96297 7.48599C2.39664 7.27932 2.82731 7.11465 3.25497 6.99199C3.68231 6.86932 4.19664 6.80799 4.79797 6.80799C5.39931 6.80799 5.91381 6.86932 6.34147 6.99199C6.76914 7.11465 7.19981 7.27932 7.63347 7.48599C7.83614 7.58599 7.99764 7.71932 8.11797 7.88599C8.23797 8.05299 8.29797 8.25249 8.29797 8.48449V9.30799H1.29797ZM9.29797 9.30799V8.46149C9.29797 8.17149 9.23931 7.89799 9.12197 7.64099C9.00497 7.38365 8.83864 7.16299 8.62297 6.97899C8.86864 7.02899 9.10531 7.09832 9.33297 7.18699C9.56031 7.27599 9.78531 7.37582 10.008 7.48649C10.2246 7.59549 10.3945 7.73499 10.5175 7.90499C10.6405 8.07499 10.702 8.26049 10.702 8.46149V9.30799H9.29797ZM4.79797 5.69249C4.38564 5.69249 4.03264 5.54549 3.73897 5.25149C3.44531 4.95749 3.29831 4.60432 3.29797 4.19199C3.29764 3.77965 3.44464 3.42665 3.73897 3.13299C4.03331 2.83932 4.38631 2.69232 4.79797 2.69199C5.20964 2.69165 5.56281 2.83865 5.85747 3.13299C6.15214 3.42732 6.29897 3.78032 6.29797 4.19199C6.29697 4.60365 6.15014 4.95699 5.85747 5.25199C5.56481 5.54699 5.21164 5.69365 4.79797 5.69199M8.43297 4.19199C8.43297 4.60465 8.28597 4.95799 7.99197 5.25199C7.69797 5.54599 7.34497 5.69265 6.93297 5.69199C6.91164 5.69199 6.88464 5.68965 6.85197 5.68499C6.81931 5.68032 6.79231 5.67499 6.77097 5.66899C6.94064 5.46165 7.07081 5.23165 7.16147 4.97899C7.25247 4.72599 7.29797 4.46332 7.29797 4.19099C7.29797 3.91865 7.25047 3.65865 7.15547 3.41099C7.06047 3.16332 6.93231 2.93149 6.77097 2.71549C6.79797 2.70582 6.82497 2.69949 6.85197 2.69649C6.87897 2.69349 6.90597 2.69199 6.93297 2.69199C7.34531 2.69199 7.69831 2.83899 7.99197 3.13299C8.28564 3.42699 8.43264 3.77999 8.43297 4.19199ZM1.79797 8.80799H7.79797V8.48449C7.79797 8.36715 7.76864 8.26465 7.70997 8.17699C7.65131 8.08932 7.54597 8.00532 7.39397 7.92499C7.02097 7.72565 6.62764 7.57299 6.21397 7.46699C5.80031 7.36099 5.32831 7.30799 4.79797 7.30799C4.26764 7.30799 3.79547 7.36099 3.38147 7.46699C2.96814 7.57299 2.57481 7.72565 2.20147 7.92499C2.04981 8.00499 1.94464 8.08899 1.88597 8.17699C1.82731 8.26465 1.79797 8.36715 1.79797 8.48449V8.80799ZM4.79797 5.19249C5.07297 5.19249 5.30847 5.09449 5.50447 4.89849C5.70047 4.70249 5.79831 4.46699 5.79797 4.19199C5.79764 3.91699 5.69981 3.68165 5.50447 3.48599C5.30914 3.29032 5.07364 3.19232 4.79797 3.19199C4.52231 3.19165 4.28697 3.28965 4.09197 3.48599C3.89697 3.68232 3.79897 3.91765 3.79797 4.19199C3.79697 4.46632 3.89497 4.70182 4.09197 4.89849C4.28897 5.09515 4.52431 5.19299 4.79797 5.19199" fill="black"/>
</svg>
