<svg width="16" height="12" viewBox="0 0 16 12" fill="none" xmlns="http://www.w3.org/2000/svg">
<path d="M0.163086 11.5133V10.1408C0.163086 9.75417 0.263086 9.42167 0.463086 9.14333C0.663642 8.86555 0.933086 8.64333 1.27142 8.47667C1.9942 8.13222 2.71198 7.85778 3.42475 7.65333C4.13698 7.44889 4.9942 7.34667 5.99642 7.34667C6.99864 7.34667 7.85614 7.44889 8.56892 7.65333C9.2817 7.85778 9.99948 8.13222 10.7223 8.47667C11.06 8.64333 11.3292 8.86555 11.5298 9.14333C11.7298 9.42167 11.8298 9.75417 11.8298 10.1408V11.5133H0.163086ZM13.4964 11.5133V10.1025C13.4964 9.61917 13.3986 9.16333 13.2031 8.735C13.0081 8.30611 12.7309 7.93833 12.3714 7.63167C12.7809 7.715 13.1753 7.83055 13.5548 7.97833C13.9336 8.12667 14.3086 8.29305 14.6798 8.4775C15.0409 8.65917 15.3239 8.89167 15.5289 9.175C15.7339 9.45833 15.8364 9.7675 15.8364 10.1025V11.5133H13.4964ZM5.99642 5.4875C5.3092 5.4875 4.72086 5.2425 4.23142 4.7525C3.74198 4.2625 3.49697 3.67389 3.49642 2.98667C3.49586 2.29944 3.74086 1.71111 4.23142 1.22166C4.72197 0.73222 5.31031 0.48722 5.99642 0.486665C6.68253 0.486109 7.27114 0.731109 7.76225 1.22166C8.25336 1.71222 8.49809 2.30055 8.49642 2.98667C8.49475 3.67278 8.25003 4.26167 7.76225 4.75333C7.27448 5.245 6.68586 5.48944 5.99642 5.48667M12.0548 2.98667C12.0548 3.67444 11.8098 4.26333 11.3198 4.75333C10.8298 5.24333 10.2414 5.48778 9.55475 5.48667C9.5192 5.48667 9.4742 5.48278 9.41975 5.475C9.36531 5.46722 9.32031 5.45833 9.28475 5.44833C9.56753 5.10278 9.78448 4.71944 9.93559 4.29833C10.0873 3.87667 10.1631 3.43889 10.1631 2.985C10.1631 2.53111 10.0839 2.09778 9.92559 1.685C9.76725 1.27222 9.55364 0.885832 9.28475 0.525832C9.32975 0.509721 9.37475 0.499165 9.41975 0.494165C9.46475 0.489165 9.50975 0.486665 9.55475 0.486665C10.242 0.486665 10.8303 0.731665 11.3198 1.22166C11.8092 1.71166 12.0542 2.3 12.0548 2.98667ZM0.996419 10.68H10.9964V10.1408C10.9964 9.94528 10.9475 9.77444 10.8498 9.62833C10.752 9.48222 10.5764 9.34222 10.3231 9.20833C9.70142 8.87611 9.04587 8.62167 8.35642 8.445C7.66698 8.26833 6.88031 8.18 5.99642 8.18C5.11253 8.18 4.32559 8.26833 3.63559 8.445C2.9467 8.62167 2.29114 8.87611 1.66892 9.20833C1.41614 9.34167 1.24086 9.48167 1.14309 9.62833C1.04531 9.77444 0.996419 9.94528 0.996419 10.1408V10.68ZM5.99642 4.65417C6.45475 4.65417 6.84725 4.49083 7.17392 4.16417C7.50059 3.8375 7.66364 3.445 7.66309 2.98667C7.66253 2.52833 7.49948 2.13611 7.17392 1.81C6.84836 1.48389 6.45586 1.32055 5.99642 1.32C5.53697 1.31944 5.14475 1.48278 4.81975 1.81C4.49475 2.13722 4.33142 2.52944 4.32975 2.98667C4.32809 3.44389 4.49142 3.83639 4.81975 4.16417C5.14809 4.49194 5.54031 4.655 5.99642 4.65333" fill="black"/>
</svg>
