<svg width="16" height="16" viewBox="0 0 16 16" fill="none" xmlns="http://www.w3.org/2000/svg">
<path d="M2 7.33333H7.33333V2H2V7.33333ZM3.33333 3.33333H6V6H3.33333V3.33333ZM2 14H7.33333V8.66667H2V14ZM3.33333 10H6V12.6667H3.33333V10ZM8.66667 2V7.33333H14V2H8.66667ZM12.6667 6H10V3.33333H12.6667V6ZM8.67333 8.66667H10.0067V10H8.67333V8.66667ZM10.0067 10H11.34V11.3333H10.0067V10ZM8.67333 11.3333H10.0067V12.6667H8.67333V11.3333ZM11.34 11.3333H12.6733V12.6667H11.34V11.3333ZM12.6733 12.6667H14.0067V14H12.6733V12.6667ZM10.0067 12.6667H11.34V14H10.0067V12.6667ZM11.34 8.66667H12.6733V10H11.34V8.66667ZM12.6733 10H14.0067V11.3333H12.6733V10Z" fill="#FF5500"/>
</svg>
